<svg width="92" height="30" viewBox="0 0 92 30" fill="none" xmlns="http://www.w3.org/2000/svg">
<g clip-path="url(#clip0_5_6576)">
<path d="M20.1698 26.4383H12.6577V11.7803C12.6555 11.5375 12.603 11.2976 12.5033 11.075C12.4036 10.8524 12.2588 10.6516 12.0775 10.4847C11.9083 10.323 11.7069 10.1967 11.4857 10.1136C11.2644 10.0304 11.028 9.99223 10.791 10.0013C10.3143 10.0161 9.86192 10.2095 9.52822 10.5409C9.19452 10.8724 9.00528 11.3164 9 11.7803V28.221C9.00621 28.6909 9.20088 29.1399 9.54252 29.4723C9.88416 29.8046 10.3457 29.994 10.8288 30H20.1698C20.4195 29.9981 20.6662 29.9472 20.895 29.8502C21.1239 29.7532 21.3303 29.6122 21.5017 29.4356C21.6679 29.271 21.7978 29.0751 21.8833 28.8599C21.9687 28.6447 22.008 28.4147 21.9987 28.1842C21.984 27.7203 21.7855 27.2798 21.4446 26.9551C21.1037 26.6304 20.6469 26.4465 20.1698 26.4419" fill="#FF0064"/>
<path d="M30.4413 0.490372C30.2791 0.327767 30.0854 0.20044 29.8723 0.116273C29.6592 0.0321065 29.4313 -0.00710825 29.2025 0.00105691C28.7433 0.0149298 28.3072 0.207183 27.9856 0.537573C27.6639 0.867962 27.4815 1.31088 27.4767 1.7736V9.54269H19.761C19.2958 9.54872 18.8514 9.73753 18.5224 10.0689C18.1934 10.4002 18.006 10.8479 18 11.3165V19.2189C18.0022 19.4611 18.0529 19.7003 18.1491 19.9223C18.2453 20.1443 18.3851 20.3444 18.5599 20.5107C18.8699 20.8206 19.2878 20.9962 19.7246 21H19.7987C20.2579 20.9858 20.6938 20.7932 21.0153 20.4626C21.3368 20.132 21.5188 19.689 21.5233 19.2262V13.0963H29.239C29.7043 13.09 30.1487 12.9009 30.4777 12.5694C30.8066 12.2378 30.994 11.79 31 11.3214V1.77972C30.9973 1.53808 30.9464 1.29946 30.8505 1.07799C30.7545 0.856512 30.6154 0.656694 30.4413 0.490372Z" fill="#B7D2E5"/>
<path d="M20.5038 2.95235C20.669 2.79006 20.7982 2.59701 20.8833 2.38501C20.9684 2.17301 21.0077 1.94651 20.9988 1.71938C20.9839 1.26186 20.7861 0.827561 20.4467 0.507174C20.1073 0.186786 19.6525 0.00508025 19.1773 0H1.82276C1.34147 0.0059499 0.881613 0.192668 0.541145 0.52038C0.200678 0.848091 0.00650904 1.2909 0 1.75447L0 11.2383C0.00242896 11.4778 0.0549635 11.7144 0.154464 11.9339C0.253966 12.1535 0.398391 12.3514 0.579112 12.516C0.900102 12.822 1.3322 12.9956 1.78381 13H1.86044C2.33629 12.985 2.78765 12.7932 3.11995 12.4648C3.45224 12.1364 3.63969 11.6968 3.643 11.2383V3.51014H19.1773C19.4259 3.50781 19.6716 3.4572 19.8995 3.36137C20.1274 3.26553 20.333 3.12642 20.5038 2.95235Z" fill="#203554"/>
<path d="M45.9974 14.3465H43.2033V17.6225C43.2021 17.8695 43.2162 18.1163 43.2453 18.3617C43.2674 18.5644 43.3322 18.7607 43.4358 18.9387C43.5412 19.1082 43.7011 19.2405 43.8916 19.3158C44.1506 19.4134 44.428 19.4584 44.7061 19.4478C44.9289 19.4442 45.1514 19.4274 45.3721 19.3976C45.6002 19.3817 45.818 19.3007 45.9974 19.165V21.6956C45.6416 21.8176 45.2722 21.8995 44.8966 21.9394C44.524 21.9792 44.1495 21.9993 43.7747 21.9998C43.2761 22.004 42.7789 21.9495 42.2943 21.8376C41.869 21.7401 41.4675 21.5646 41.112 21.3209C40.7733 21.0812 40.5024 20.7645 40.3238 20.3995C40.1216 19.9671 40.0241 19.4965 40.0388 19.0229V14.3465H38V11.9152H40.0322V9H43.2059V11.9152H46L45.9974 14.3465Z" fill="#121F2D"/>
<path d="M49.8842 7V13.6663H49.9235C49.9981 13.4617 50.1091 13.2734 50.2506 13.1108C50.4119 12.9192 50.5998 12.7532 50.8081 12.6182C51.047 12.4627 51.3057 12.3425 51.5769 12.2611C51.8888 12.1661 52.2127 12.1192 52.5379 12.1219C53.2693 12.1219 53.8594 12.2377 54.3083 12.4692C54.7371 12.6837 55.0999 13.0166 55.3564 13.431C55.6176 13.8741 55.7905 14.3665 55.865 14.8793C55.9578 15.4763 56.003 16.0801 55.9998 16.6847V21.9988H53.1157V17.2771C53.1157 16.9988 53.1061 16.7114 53.087 16.415C53.0703 16.1329 53.012 15.8551 52.9139 15.5911C52.8234 15.3481 52.6702 15.1352 52.4711 14.9754C52.2717 14.8165 51.9876 14.7377 51.6151 14.7377C51.3014 14.7235 50.9896 14.7953 50.7114 14.9458C50.4883 15.0763 50.3051 15.2687 50.1826 15.5012C50.0574 15.7451 49.9765 16.0106 49.9438 16.2845C49.9045 16.587 49.8849 16.8918 49.8853 17.197V22H47V7H49.8842Z" fill="#121F2D"/>
<path d="M58 12.2406H61.0723V13.8073H61.1129C61.3832 13.2701 61.7823 12.8052 62.276 12.4524C62.7277 12.1508 63.2942 12 63.9755 12C64.1534 12 64.3301 12.0075 64.5081 12.0199C64.6743 12.0313 64.8391 12.0584 65 12.101V14.8518C64.7887 14.7864 64.5729 14.736 64.3543 14.701C64.1344 14.6669 63.9121 14.6502 63.6895 14.6511C63.1022 14.6511 62.6362 14.7313 62.2913 14.8917C61.9682 15.0373 61.6946 15.2709 61.5032 15.5648C61.3092 15.8798 61.1869 16.2323 61.1447 16.598C61.0879 17.0374 61.0607 17.4801 61.0634 17.923V22H58V12.2406Z" fill="#121F2D"/>
<path d="M66 8.79341C66.0004 8.49831 66.0615 8.20787 66.1779 7.94776C66.2943 7.68765 66.4624 7.46589 66.6674 7.30209C66.8724 7.13829 67.1079 7.0375 67.3532 7.00862C67.5985 6.97974 67.8459 7.02367 68.0736 7.13653C68.3013 7.24938 68.5023 7.42768 68.6588 7.65566C68.8153 7.88363 68.9225 8.15427 68.9708 8.44363C69.0192 8.733 69.0073 9.03217 68.9361 9.3147C68.865 9.59724 68.7368 9.85442 68.5629 10.0635C68.3532 10.3156 68.0857 10.4875 67.7944 10.5573C67.503 10.6271 67.2009 10.5918 66.9264 10.4557C66.6518 10.3196 66.4172 10.089 66.2523 9.79307C66.0874 9.49713 65.9996 9.1492 66 8.79341ZM66.2068 11.9546H68.7964V22H66.2068V11.9546Z" fill="#121F2D"/>
<path d="M71 12H74.2258L76.6854 18.7893H76.7249L78.9892 12H82L78.1685 22H75.007L71 12Z" fill="#121F2D"/>
<path d="M91.537 20.1223C91.0538 20.7249 90.4264 21.2026 89.7099 21.5135C88.9919 21.8345 88.2113 22.0004 87.4216 21.9999C86.6996 22.0043 85.9824 21.885 85.3028 21.6472C84.6643 21.4261 84.0775 21.083 83.5766 20.6379C83.0838 20.1947 82.6908 19.6563 82.4225 19.0571C82.1436 18.4054 82 17.7063 82 17.0001C82 16.294 82.1436 15.5949 82.4225 14.9432C82.6909 14.344 83.0839 13.8057 83.5766 13.3624C84.0775 12.9173 84.6643 12.5742 85.3028 12.3531C85.9824 12.1153 86.6996 11.9959 87.4216 12.0004C88.0718 11.992 88.717 12.112 89.3185 12.3531C89.8729 12.5777 90.3675 12.9229 90.7643 13.3624C91.1735 13.8248 91.4841 14.3623 91.6779 14.9432C91.9003 15.6067 92.0089 16.3015 91.9994 16.9995V17.9201H85.0124C85.1098 18.4398 85.3859 18.9116 85.7951 19.2577C86.2114 19.5952 86.7398 19.7725 87.2807 19.7563C87.7224 19.7706 88.1586 19.6586 88.5358 19.434C88.8835 19.2121 89.1864 18.9298 89.4294 18.6011L91.537 20.1223ZM88.9845 15.9306C88.9958 15.6964 88.9573 15.4623 88.8715 15.2432C88.7857 15.0242 88.6545 14.8247 88.486 14.6575C88.312 14.4823 88.1023 14.3448 87.8704 14.2537C87.6386 14.1626 87.3897 14.1199 87.1399 14.1285C86.838 14.1225 86.5379 14.1759 86.2575 14.2853C86.0173 14.3807 85.7963 14.5165 85.6044 14.6866C85.4261 14.8462 85.2828 15.0394 85.1831 15.2545C85.0827 15.4673 85.0248 15.6967 85.0124 15.9306H88.9845Z" fill="#121F2D"/>
</g>
<defs>
<clipPath id="clip0_5_6576">
<rect width="92" height="30" fill="white"/>
</clipPath>
</defs>
</svg>
